<svg xmlns="http://www.w3.org/2000/svg" version="1.1" xmlns:xlink="http://www.w3.org/1999/xlink" xmlns:svgjs="http://svgjs.dev/svgjs" width="1500" height="1500" viewBox="0 0 1500 1500"><rect width="1500" height="1500" fill="#ffffff"></rect><g transform="matrix(0.6666666666666666,0,0,0.6666666666666666,249.39393939393938,652.2061802091596)"><svg viewBox="0 0 396 77" data-background-color="#ffffff" preserveAspectRatio="xMidYMid meet" height="291" width="1500" xmlns="http://www.w3.org/2000/svg" xmlns:xlink="http://www.w3.org/1999/xlink"><g id="tight-bounds" transform="matrix(1,0,0,1,0.2400000000000091,0.3150728035810175)"><svg viewBox="0 0 395.52 76.36985439283796" height="76.36985439283796" width="395.52"><g><svg viewBox="0 0 486.17063286507823 93.87333242814499" height="76.36985439283796" width="395.52"><g transform="matrix(1,0,0,1,90.6506328650783,8.776154486993605)"><svg viewBox="0 0 395.5199999999999 76.32102345415778" height="76.32102345415778" width="395.5199999999999"><g id="textblocktransform"><svg viewBox="0 0 395.5199999999999 76.32102345415778" height="76.32102345415778" width="395.5199999999999" id="textblock"><g><svg viewBox="0 0 395.5199999999999 76.32102345415778" height="76.32102345415778" width="395.5199999999999"><g transform="matrix(1,0,0,1,0,0)"><svg width="395.5199999999999" viewBox="2.5 -35.6 187.58 36.2" height="76.32102345415778" data-palette-color="#ea3a36"><path d="M9.4-28.2L9.4-21.3 18.35-21.3 18.35-15.25 9.4-15.25 9.4-6.05 21.35-6.05 21.35 0 2.5 0 2.5-30.8 9.4-35.6 20.55-35.6 20.55-29.5 11.25-29.5 9.4-28.2ZM44.05-33L44.05-33Q47.34-35.6 49.05-35.6 50.74-35.6 54.32-32.33 57.89-29.05 58.75-27L58.75-27Q59.3-25.7 59.3-20.45L59.3-20.45 59.3-14.55Q59.3-9.3 58.75-8L58.75-8Q57.84-6.05 54.39-3.03 50.95 0 48.95 0L48.95 0 38.59 0 38.59-21.4Q38.59-25.45 38.02-27.1 37.45-28.75 35.59-31L35.59-31 42.2-35.6Q43.24-34.8 44.05-33ZM48.95-28.45L48.95-28.45Q47.49-28.45 45.34-27.5L45.34-27.5Q45.49-26.45 45.49-24.3L45.49-24.3 45.49-6.05 48.95-6.05Q49.64-6.05 50.62-7.08 51.59-8.1 52-9.03 52.39-9.95 52.39-14.05L52.39-14.05 52.39-20.45Q52.39-24.55 52-25.48 51.59-26.4 50.62-27.43 49.64-28.45 48.95-28.45ZM79.09-35L85.99-35 85.99-14.55Q85.99-9.3 85.44-8L85.44-8Q84.59-5.95 81.02-2.68 77.44 0.6 75.64 0.6 73.84 0.6 70.27-2.68 66.69-5.95 65.84-8L65.84-8Q65.29-9.3 65.29-14.55L65.29-14.55 65.29-21.8Q65.29-25.85 64.72-27.5 64.14-29.15 62.29-31.4L62.29-31.4 68.29-35.6Q69.89-34.55 71.04-31.53 72.19-28.5 72.19-24.3L72.19-24.3 72.19-14.55Q72.19-10.45 72.59-9.53 72.99-8.6 73.97-7.58 74.94-6.55 75.64-6.55 76.34-6.55 77.32-7.58 78.29-8.6 78.69-9.53 79.09-10.45 79.09-14.55L79.09-14.55 79.09-35ZM98.89-24.9L98.89-24.9 98.89-22 100.39-22Q101.24-22 102.17-22.93 103.09-23.85 103.57-24.68 104.04-25.5 104.54-29.43 105.04-33.35 105.04-35L105.04-35 111.94-35Q111.94-33.05 111.39-28.9 110.84-24.75 110.39-23.8L110.39-23.8Q109.64-22.15 106.59-19.35L106.59-19.35Q110.14-16.3 111.19-14.2L111.19-14.2Q111.69-13.15 112.22-7.88 112.74-2.6 112.74 0L112.74 0 105.84 0Q105.84-2.35 105.37-7.38 104.89-12.4 104.44-13.2L104.44-13.2Q102.89-16 100.79-16L100.79-16 98.89-16 98.89 0 91.99 0 91.99-21.9Q91.99-25.95 91.42-27.53 90.84-29.1 88.99-31.4L88.99-31.4 94.99-35.6Q96.59-34.55 97.74-31.73 98.89-28.9 98.89-24.9ZM122.64-32.35Q126.19-35.6 128.04-35.6 129.89-35.6 133.44-32.35 136.99-29.1 137.84-27L137.84-27Q138.39-25.55 138.39-20.45L138.39-20.45 138.39 0 131.49 0 131.49-7.5 124.59-7.5 124.59 0 117.69 0 117.69-20.45Q117.69-25.55 118.24-27L118.24-27Q119.09-29.1 122.64-32.35ZM124.59-20.45L124.59-20.45 124.59-13.5 131.49-13.5 131.49-20.45Q131.49-24.55 131.09-25.48 130.69-26.4 129.71-27.43 128.74-28.45 128.04-28.45 127.34-28.45 126.36-27.43 125.39-26.4 124.99-25.48 124.59-24.55 124.59-20.45ZM148.34-32.35Q151.89-35.6 153.74-35.6 155.59-35.6 159.14-32.35 162.69-29.1 163.54-27L163.54-27Q164.09-25.55 164.09-20.45L164.09-20.45 164.09 0 157.19 0 157.19-7.5 150.29-7.5 150.29 0 143.39 0 143.39-20.45Q143.39-25.55 143.94-27L143.94-27Q144.79-29.1 148.34-32.35ZM150.29-20.45L150.29-20.45 150.29-13.5 157.19-13.5 157.19-20.45Q157.19-24.55 156.79-25.48 156.39-26.4 155.41-27.43 154.44-28.45 153.74-28.45 153.04-28.45 152.06-27.43 151.09-26.4 150.69-25.48 150.29-24.55 150.29-20.45ZM176.93-26.45L176.93-26.45 176.98-24.3 176.98 0 170.08 0 170.08-21.4Q170.08-25.6 169.51-27.3 168.93-29 167.08-31.4L167.08-31.4 173.08-35.6Q174.53-34.65 175.78-32.35L175.78-32.35Q179.73-35.6 181.13-35.6 182.53-35.6 185.56-32.98 188.58-30.35 189.33-29.28 190.08-28.2 190.08-26.45L190.08-26.45 190.08 0 183.13 0 183.13-25.45Q183.13-25.9 182.76-26.58 182.38-27.25 181.61-28.1 180.83-28.95 180.16-28.95 179.48-28.95 178.48-28.18 177.48-27.4 176.93-26.45Z" opacity="1" transform="matrix(1,0,0,1,0,0)" fill="#ea3a36" class="wordmark-text-0" data-fill-palette-color="primary" id="text-0"></path></svg></g></svg></g></svg></g></svg></g><g><svg viewBox="0 0 72.63307093211453 93.87333242814499" height="93.87333242814499" width="72.63307093211453"><g><svg xmlns="http://www.w3.org/2000/svg" xmlns:xlink="http://www.w3.org/1999/xlink" version="1.1" x="0" y="0" viewBox="11.452907485383173 0.18319745593316422 77.09324248441658 99.63780254406683" enable-background="new 0 0 100 100" xml:space="preserve" height="93.87333242814499" width="72.63307093211453" class="icon-icon-0" data-fill-palette-color="accent" id="icon-0"><path d="M82.511 27.412A19 19 0 0 0 81.969 26.016C81.66 24.186 80.222 20.742 80.203 20.703L79.905 20.044C79.254 18.615 78.514 16.997 78.38 15.607 78.276 14.534 79.664 8.98 80.331 6.31 81.563 1.384 81.693 0.871 80.191 0.328A1.7 1.7 0 0 0 79.496 0.241L79.487 0.239C78.055-0.07 76.527 0.925 73.95 2.71 73.499 3.022 72.908 3.431 72.351 3.791 72.545 2.881 72.517 1.699 71.356 0.77 69.883-0.409 67.795 0.795 64.636 2.621 63.751 3.133 62.43 3.898 61.548 4.292 60.85 3.144 59.564 1.899 57.137 2.391 55.764 2.669 54.17 3.873 51.897 5.681A56 56 0 0 1 49.891 7.224C49.881 6.81 49.833 6.358 49.666 5.914 48.867 3.807 47.562 3.138 46.607 2.948 43.52 2.33 40.196 5.844 37.533 8.669 37.366 8.847 37.192 9.03 37.021 9.21 36.25 7.934 35.283 6.618 33.862 6.369 32.492 6.12 26.843 7.476 21.609 12.076 16.624 16.456 10.825 24.911 11.508 40.324 11.697 44.571 13.991 82.189 36.256 95.431 41.177 98.36 46.652 99.821 52.646 99.821 59.822 99.821 67.741 97.724 76.341 93.534 99.438 82.278 82.694 27.953 82.511 27.412M74.902 90.58C60.177 97.756 47.739 98.44 37.933 92.606 17.15 80.245 14.969 44.241 14.789 40.177 14.331 29.844 16.834 21.719 22.23 16.029 26.858 11.149 32.112 9.778 33.273 9.63 33.666 9.955 34.292 11.033 34.604 11.572 34.878 12.044 35.115 12.453 35.361 12.782A1.64 1.64 0 0 0 37.602 13.153C38.206 12.74 38.926 11.977 39.921 10.92 41.215 9.548 44.647 5.904 45.965 6.166 46.155 6.205 46.397 6.553 46.589 7.057 46.616 7.166 46.61 7.496 46.605 7.713 46.588 8.531 46.556 10.055 47.913 10.854 49.493 11.785 51.262 10.377 53.938 8.25 55.116 7.315 57.085 5.75 57.789 5.608 58.389 5.485 58.568 5.448 59.116 6.788 59.319 7.283 59.749 7.648 60.271 7.767 61.648 8.083 63.367 7.145 66.279 5.462 66.993 5.048 68.004 4.465 68.814 4.058 68.552 4.823 68.318 5.883 68.961 6.904 69.278 7.403 69.773 7.744 70.359 7.863 71.767 8.152 73.274 7.168 75.815 5.409A59 59 0 0 1 77.446 4.308C77.347 4.706 77.245 5.117 77.144 5.514 75.86 10.652 74.962 14.407 75.11 15.925 75.187 16.717 75.378 17.503 75.628 18.267 73.953 17.265 72.045 16.743 69.951 17.045 68.771 17.215 67.626 17.713 66.572 18.497 65.031 17.133 63.287 16.183 61.414 16.016 56.82 15.605 50.848 15.604 46.462 17.502 44.475 15.922 41.521 15.706 38.254 16.926 32.402 19.112 28.494 22.885 26.638 28.142 21.952 41.416 31.853 60.493 36.385 68.164 36.221 69.598 36.261 71.04 36.552 72.433 37.343 76.214 40.695 82.621 54.265 83.063 70.987 83.608 76.496 76.378 77.123 72.023 77.462 69.668 76.358 68.287 75.11 67.963 74.023 67.682 70.63 67.635 62.565 67.591 55.257 67.55 43.501 67.484 39.947 66.818 40.947 62.866 43.719 59.321 46.099 58.187 47.861 57.343 48.722 58.053 49.215 58.66 49.861 59.452 50.59 59.594 51.078 59.599 52.155 59.578 52.812 58.796 53.224 58.257 53.628 58.431 54.137 58.819 54.668 59.223 55.961 60.207 57.734 61.558 60.316 61.589 61.712 61.577 62.867 61.206 63.681 60.401 65.013 59.085 65.123 57.105 65.123 55.022 65.123 52.841 64.738 50.834 64.366 48.895L64.169 47.854C63.404 43.727 62.321 39.308 60.952 34.719A140 140 0 0 0 60.051 31.857C59.613 30.501 59.16 29.099 58.804 27.783 58.573 26.933 58.06 24.731 57.686 23.123 57.495 22.298 57.339 21.633 57.278 21.385A1.641 1.641 0 0 0 54.094 22.183C54.154 22.424 54.304 23.068 54.49 23.867 54.871 25.5 55.39 27.736 55.637 28.643 56.014 30.033 56.478 31.473 56.927 32.865 57.231 33.804 57.533 34.742 57.806 35.659 59.144 40.136 60.201 44.439 60.942 48.451L61.143 49.513C61.501 51.385 61.842 53.153 61.842 55.021 61.842 55.922 61.842 57.602 61.374 58.065 61.165 58.27 60.696 58.304 60.355 58.304 58.859 58.286 57.789 57.472 56.655 56.61 55.517 55.742 54.233 54.747 52.55 54.89 51.828 54.945 51.34 55.371 50.988 55.784 49.284 54.315 47.043 54.098 44.687 55.221 41.848 56.575 39.109 59.808 37.568 63.609 32.945 55.189 25.988 39.84 29.733 29.235 31.272 24.878 34.435 21.857 39.402 20.002 40.035 19.765 41.815 19.189 43.298 19.545 40.871 21.995 37.405 27.985 37.863 31.996 38.064 33.765 39.01 35.104 40.526 35.766 43.253 36.959 47.388 36.267 48.962 33.375 49.856 31.73 50.139 29.114 49.804 25.596 49.743 24.954 49.45 22.436 48.459 20.239 51.462 19.153 55.825 18.815 61.122 19.287 62.107 19.375 63.194 19.926 64.282 20.864 64.181 21.005 64.083 21.148 63.985 21.294 61.96 24.354 61.106 28.346 61.865 31.226 62.182 32.43 63.02 33.372 64.29 33.952 66.566 34.993 69.86 34.665 71.729 33.745 72.568 33.334 73.465 32.294 72.978 29.678 72.54 27.318 71.028 23.805 68.813 20.929 69.338 20.588 69.879 20.372 70.419 20.295 74.047 19.762 77.305 23.663 78.883 27.165 78.889 27.182 78.897 27.198 78.904 27.215 79.094 27.641 79.26 28.062 79.398 28.468 82.27 36.925 93.027 81.749 74.902 90.58M66.648 23.53C68.892 26.704 69.813 29.848 69.847 30.975 68.65 31.378 66.76 31.469 65.657 30.964 65.132 30.724 65.064 30.471 65.044 30.388 64.546 28.503 65.177 25.607 66.546 23.386zM46.081 31.805C45.429 33.004 43.168 33.335 41.843 32.757 41.523 32.617 41.215 32.383 41.128 31.624 40.815 28.877 43.759 23.688 45.595 21.877 46.079 23.069 46.414 24.593 46.539 25.907 46.796 28.601 46.624 30.806 46.081 31.805M39.57 70.049C42.673 70.596 49.033 70.797 62.549 70.872 67.149 70.897 72.302 70.927 73.904 71.084 73.93 71.552 73.765 72.534 72.954 73.743 71.639 75.695 67.196 80.188 54.375 79.78 45.857 79.504 40.807 76.731 39.767 71.759A9.7 9.7 0 0 1 39.57 70.049" fill="#f27d2c" data-fill-palette-color="accent"></path></svg></g></svg></g></svg></g><defs></defs></svg><rect width="395.52" height="76.36985439283796" fill="none" stroke="none" visibility="hidden"></rect></g></svg></g></svg>